<svg width="253" height="99" viewBox="0 0 253 99" fill="none" xmlns="http://www.w3.org/2000/svg">
<path d="M15.4755 80.7895L22.9157 34.3202L50.941 49.8549L15.4755 80.7895Z" fill="#D9D9D9"/>
<path d="M68.6149 18.8039L57.1531 64.4479L30.5883 46.5298L68.6149 18.8039Z" fill="#E8C630"/>
<path d="M82.37 62.985C81.8567 63.405 81.2267 63.72 80.48 63.93C79.7567 64.14 78.9867 64.245 78.17 64.245C76.1167 64.245 74.53 63.7083 73.41 62.635C72.29 61.5617 71.73 59.9983 71.73 57.945V41.18H76.105V45.45H81.11V48.95H76.105V57.84C76.105 58.75 76.3267 59.45 76.77 59.94C77.2367 60.4067 77.8783 60.64 78.695 60.64C79.675 60.64 80.4917 60.3833 81.145 59.87L82.37 62.985ZM85.9862 45.31H90.3612V64H85.9862V45.31ZM88.1912 42.23C87.3979 42.23 86.7329 41.985 86.1962 41.495C85.6595 40.9817 85.3912 40.3517 85.3912 39.605C85.3912 38.8583 85.6595 38.24 86.1962 37.75C86.7329 37.2367 87.3979 36.98 88.1912 36.98C88.9845 36.98 89.6495 37.225 90.1862 37.715C90.7229 38.1817 90.9912 38.7767 90.9912 39.5C90.9912 40.27 90.7229 40.9233 90.1862 41.46C89.6729 41.9733 89.0079 42.23 88.1912 42.23ZM119.693 45.1C122.05 45.1 123.917 45.7883 125.293 47.165C126.67 48.5183 127.358 50.56 127.358 53.29V64H122.983V53.85C122.983 52.2167 122.622 50.9917 121.898 50.175C121.175 49.335 120.137 48.915 118.783 48.915C117.313 48.915 116.135 49.405 115.248 50.385C114.362 51.3417 113.918 52.7183 113.918 54.515V64H109.543V53.85C109.543 52.2167 109.182 50.9917 108.458 50.175C107.735 49.335 106.697 48.915 105.343 48.915C103.85 48.915 102.66 49.3933 101.773 50.35C100.91 51.3067 100.478 52.695 100.478 54.515V64H96.1034V45.31H100.268V47.69C100.968 46.85 101.843 46.2083 102.893 45.765C103.943 45.3217 105.11 45.1 106.393 45.1C107.793 45.1 109.03 45.3683 110.103 45.905C111.2 46.4183 112.063 47.1883 112.693 48.215C113.463 47.235 114.455 46.4767 115.668 45.94C116.882 45.38 118.223 45.1 119.693 45.1ZM142.01 60.535C144.04 60.535 145.732 59.8583 147.085 58.505L149.395 61.2C148.578 62.2033 147.528 62.9617 146.245 63.475C144.962 63.9883 143.515 64.245 141.905 64.245C139.852 64.245 138.043 63.8367 136.48 63.02C134.917 62.2033 133.703 61.0717 132.84 59.625C132 58.155 131.58 56.4983 131.58 54.655C131.58 52.835 131.988 51.2017 132.805 49.755C133.645 48.285 134.788 47.1417 136.235 46.325C137.705 45.5083 139.362 45.1 141.205 45.1C142.955 45.1 144.542 45.485 145.965 46.255C147.412 47.0017 148.555 48.0867 149.395 49.51C150.235 50.91 150.655 52.555 150.655 54.445L136.34 57.245C136.783 58.3183 137.495 59.135 138.475 59.695C139.455 60.255 140.633 60.535 142.01 60.535ZM141.205 48.6C139.595 48.6 138.288 49.125 137.285 50.175C136.305 51.225 135.815 52.6367 135.815 54.41V54.445L146.385 52.415C146.082 51.2717 145.463 50.35 144.53 49.65C143.62 48.95 142.512 48.6 141.205 48.6ZM172.288 45.59C169.978 44.2833 167.575 43.49 165.078 43.21V64H160.528V43.21C158.008 43.49 155.593 44.2833 153.283 45.59L151.708 42.09C153.342 41.11 155.092 40.375 156.958 39.885C158.848 39.395 160.785 39.15 162.768 39.15C164.752 39.15 166.688 39.395 168.578 39.885C170.468 40.375 172.23 41.11 173.863 42.09L172.288 45.59ZM192.816 45.31V64H188.651V61.585C187.927 62.4717 187.029 63.1367 185.956 63.58C184.906 64.0233 183.739 64.245 182.456 64.245C180.636 64.245 179.002 63.8483 177.556 63.055C176.132 62.2617 175.012 61.1417 174.196 59.695C173.402 58.2483 173.006 56.5683 173.006 54.655C173.006 52.7417 173.402 51.0733 174.196 49.65C175.012 48.2033 176.132 47.0833 177.556 46.29C179.002 45.4967 180.636 45.1 182.456 45.1C183.669 45.1 184.777 45.31 185.781 45.73C186.807 46.15 187.694 46.7683 188.441 47.585V45.31H192.816ZM182.946 60.5C184.556 60.5 185.886 59.9633 186.936 58.89C187.986 57.8167 188.511 56.405 188.511 54.655C188.511 52.905 187.986 51.4933 186.936 50.42C185.886 49.3467 184.556 48.81 182.946 48.81C181.336 48.81 180.006 49.3467 178.956 50.42C177.929 51.4933 177.416 52.905 177.416 54.655C177.416 56.405 177.929 57.8167 178.956 58.89C180.006 59.9633 181.336 60.5 182.946 60.5ZM208.9 45.1C210.72 45.1 212.342 45.4967 213.765 46.29C215.212 47.0833 216.343 48.2033 217.16 49.65C217.977 51.0967 218.385 52.765 218.385 54.655C218.385 56.545 217.977 58.225 217.16 59.695C216.343 61.1417 215.212 62.2617 213.765 63.055C212.342 63.8483 210.72 64.245 208.9 64.245C207.617 64.245 206.438 64.0233 205.365 63.58C204.315 63.1367 203.428 62.4717 202.705 61.585V64H198.54V38.03H202.915V47.585C203.662 46.7683 204.537 46.15 205.54 45.73C206.567 45.31 207.687 45.1 208.9 45.1ZM208.41 60.5C210.02 60.5 211.338 59.9633 212.365 58.89C213.415 57.8167 213.94 56.405 213.94 54.655C213.94 52.905 213.415 51.4933 212.365 50.42C211.338 49.3467 210.02 48.81 208.41 48.81C207.36 48.81 206.415 49.055 205.575 49.545C204.735 50.0117 204.07 50.6883 203.58 51.575C203.09 52.4617 202.845 53.4883 202.845 54.655C202.845 55.8217 203.09 56.8483 203.58 57.735C204.07 58.6217 204.735 59.31 205.575 59.8C206.415 60.2667 207.36 60.5 208.41 60.5ZM228.694 64.245C226.757 64.245 225.241 63.72 224.144 62.67C223.071 61.5967 222.534 60.0917 222.534 58.155V38.03H226.909V57.84C226.909 59.7067 227.784 60.64 229.534 60.64C230.117 60.64 230.642 60.5233 231.109 60.29L231.319 63.79C230.502 64.0933 229.627 64.245 228.694 64.245ZM242.84 60.535C244.87 60.535 246.562 59.8583 247.915 58.505L250.225 61.2C249.408 62.2033 248.358 62.9617 247.075 63.475C245.792 63.9883 244.345 64.245 242.735 64.245C240.682 64.245 238.873 63.8367 237.31 63.02C235.747 62.2033 234.533 61.0717 233.67 59.625C232.83 58.155 232.41 56.4983 232.41 54.655C232.41 52.835 232.818 51.2017 233.635 49.755C234.475 48.285 235.618 47.1417 237.065 46.325C238.535 45.5083 240.192 45.1 242.035 45.1C243.785 45.1 245.372 45.485 246.795 46.255C248.242 47.0017 249.385 48.0867 250.225 49.51C251.065 50.91 251.485 52.555 251.485 54.445L237.17 57.245C237.613 58.3183 238.325 59.135 239.305 59.695C240.285 60.255 241.463 60.535 242.84 60.535ZM242.035 48.6C240.425 48.6 239.118 49.125 238.115 50.175C237.135 51.225 236.645 52.6367 236.645 54.41V54.445L247.215 52.415C246.912 51.2717 246.293 50.35 245.36 49.65C244.45 48.95 243.342 48.6 242.035 48.6Z" fill="#414141"/>
</svg>
